<svg width="48" height="48" viewBox="0 0 48 48" fill="none" xmlns="http://www.w3.org/2000/svg">
<g clip-path="url(#clip0_247_26)">
<path d="M36.3333 4.8V5.8H37.3333H42.6667C45.1574 5.8 47 7.60158 47 9.6V43.2C47 45.1984 45.1574 47 42.6667 47H5.33333C2.84257 47 1 45.1984 1 43.2V9.6C1 7.60158 2.84257 5.8 5.33333 5.8H10.6667H11.6667V4.8V1H15V4.8V5.8H16H32H33V4.8V1H36.3333V4.8ZM16 39.4H17V38.4V33.6V32.6H16H10.6667H9.66667V33.6V38.4V39.4H10.6667H16ZM16 29.8H17V28.8V24V23H16H10.6667H9.66667V24V28.8V29.8H10.6667H16ZM26.6667 39.4H27.6667V38.4V33.6V32.6H26.6667H21.3333H20.3333V33.6V38.4V39.4H21.3333H26.6667ZM26.6667 29.8H27.6667V28.8V24V23H26.6667H21.3333H20.3333V24V28.8V29.8H21.3333H26.6667ZM37.3333 39.4H38.3333V38.4V33.6V32.6H37.3333H32H31V33.6V38.4V39.4H32H37.3333ZM37.3333 29.8H38.3333V28.8V24V23H37.3333H32H31V24V28.8V29.8H32H37.3333ZM42.6667 17.8H43.6667V16.8V12V11H42.6667H5.33333H4.33333V12V16.8V17.8H5.33333H42.6667Z" fill="#168CE3" stroke="black" stroke-width="2"/>
</g>
<defs>
<clipPath id="clip0_247_26">
<rect width="48" height="48" fill="white"/>
</clipPath>
</defs>
</svg>
