<svg width="70" height="70" viewBox="0 0 70 70" fill="none" xmlns="http://www.w3.org/2000/svg">
<path d="M7.41595 6.88986H22.8837L27.8685 19.3536L19.859 24.6933C19.3874 25.008 19.0007 25.4342 18.7333 25.9342C18.4658 26.4342 18.326 26.9924 18.326 27.5594C18.3364 27.8833 18.326 27.5629 18.326 27.5629V27.6352C18.3281 27.7893 18.335 27.9432 18.3467 28.0969C18.3674 28.3793 18.4018 28.7617 18.4673 29.2337C18.6016 30.1638 18.86 31.4453 19.363 32.9542C20.3758 35.9857 22.3601 39.9095 26.2253 43.7747C30.0905 47.6399 34.0143 49.6242 37.0424 50.637C38.5547 51.14 39.8328 51.3949 40.7698 51.5327C41.2987 51.6066 41.8311 51.6526 42.3648 51.6705L42.4096 51.674H42.4371C42.4371 51.674 42.8229 51.6533 42.4406 51.674C43.0802 51.6736 43.707 51.4952 44.251 51.1588C44.7949 50.8223 45.2344 50.3411 45.5203 49.7689L47.8284 45.1527L63.1101 47.702V62.5841C55.8379 63.6348 36.1949 64.6717 20.7616 49.2384C5.32832 33.8051 6.3618 14.1587 7.41595 6.88986ZM25.4674 29.2337L31.6924 25.086C33.0075 24.2088 33.9809 22.9061 34.4495 21.3963C34.918 19.8866 34.8531 18.2616 34.2657 16.794L29.2809 4.33028C28.7694 3.05188 27.8865 1.95608 26.7463 1.18424C25.606 0.41239 24.2606 -9.23016e-05 22.8837 1.54926e-08H7.23681C4.10537 1.54926e-08 1.15996 2.17375 0.646663 5.57045C-0.524614 13.294 -2.11273 36.1063 15.8905 54.1095C33.8937 72.1127 56.706 70.5212 64.4296 69.3533C67.8262 68.8366 70 65.8946 70 62.7632V47.702C70.0002 46.071 69.4218 44.4928 68.3677 43.2483C67.3137 42.0037 65.8523 41.1734 64.2435 40.9051L48.9618 38.3593C47.5084 38.1167 46.0155 38.3465 44.7022 39.0149C43.389 39.6832 42.3246 40.7551 41.6655 42.0729L40.4735 44.4603C40.052 44.3565 39.6348 44.2358 39.223 44.0986C37.0871 43.3889 34.1211 41.9283 31.0964 38.9036C28.0718 35.879 26.6111 32.9129 25.9014 30.7736C25.732 30.2679 25.5883 29.7539 25.4708 29.2337H25.4674Z" fill="black"/>
</svg>
