<svg width="20" height="20" viewBox="0 0 20 20" fill="none" xmlns="http://www.w3.org/2000/svg">
<path d="M3.70024 3.7C3.81618 3.58389 3.95388 3.49178 4.10545 3.42893C4.25702 3.36609 4.41949 3.33374 4.58358 3.33374C4.74766 3.33374 4.91013 3.36609 5.0617 3.42893C5.21327 3.49178 5.35097 3.58389 5.46691 3.7L10.0002 8.23166L14.5336 3.7C14.6496 3.584 14.7873 3.49198 14.9389 3.4292C15.0904 3.36642 15.2529 3.33411 15.4169 3.33411C15.581 3.33411 15.7434 3.36642 15.895 3.4292C16.0465 3.49198 16.1842 3.584 16.3002 3.7C16.4162 3.816 16.5083 3.95371 16.571 4.10527C16.6338 4.25684 16.6661 4.41928 16.6661 4.58333C16.6661 4.74738 16.6338 4.90982 16.571 5.06139C16.5083 5.21295 16.4162 5.35066 16.3002 5.46666L11.7686 10L16.3002 14.5333C16.5345 14.7676 16.6661 15.0854 16.6661 15.4167C16.6661 15.748 16.5345 16.0657 16.3002 16.3C16.066 16.5343 15.7482 16.6659 15.4169 16.6659C15.0856 16.6659 14.7678 16.5343 14.5336 16.3L10.0002 11.7683L5.46691 16.3C5.23263 16.5343 4.91489 16.6659 4.58358 16.6659C4.25226 16.6659 3.93452 16.5343 3.70024 16.3C3.46597 16.0657 3.33435 15.748 3.33435 15.4167C3.33435 15.0854 3.46597 14.7676 3.70024 14.5333L8.23191 10L3.70024 5.46666C3.58413 5.35072 3.49202 5.21303 3.42918 5.06146C3.36633 4.90989 3.33398 4.74741 3.33398 4.58333C3.33398 4.41925 3.36633 4.25677 3.42918 4.1052C3.49202 3.95363 3.58413 3.81594 3.70024 3.7Z" fill="black"/>
</svg>
