<svg width="52" height="50" viewBox="0 0 52 50" fill="none" xmlns="http://www.w3.org/2000/svg">
<path d="M46.2105 15.1579H5.78947C3.69661 15.1579 2 16.8545 2 18.9474V44.2105C2 46.3034 3.69661 48 5.78947 48H46.2105C48.3034 48 50 46.3034 50 44.2105V18.9474C50 16.8545 48.3034 15.1579 46.2105 15.1579Z" fill="#2F88FF" stroke="black" stroke-width="4" stroke-linejoin="round"/>
<path d="M19.6842 5.05263H32.3158V0H19.6842V5.05263ZM33.5789 6.31579V15.1579H38.6316V6.31579H33.5789ZM18.421 15.1579V6.31579H13.3684V15.1579H18.421ZM32.3158 5.05263C33.0134 5.05263 33.5789 5.61817 33.5789 6.31579H38.6316C38.6316 2.82768 35.8039 0 32.3158 0V5.05263ZM19.6842 0C16.1961 0 13.3684 2.82768 13.3684 6.31579H18.421C18.421 5.61817 18.9866 5.05263 19.6842 5.05263V0Z" fill="black"/>
<path d="M18.4211 31.5789H33.579" stroke="white" stroke-width="4" stroke-linecap="round" stroke-linejoin="round"/>
<path d="M26 24V39.1579" stroke="white" stroke-width="4" stroke-linecap="round" stroke-linejoin="round"/>
</svg>
