<svg width="35" height="35" viewBox="0 0 35 35" fill="none" xmlns="http://www.w3.org/2000/svg">
<path d="M29.1667 4.375H5.83341C5.05987 4.375 4.318 4.68229 3.77102 5.22927C3.22404 5.77625 2.91675 6.51812 2.91675 7.29167V10.2083C2.91982 10.7173 3.05604 11.2167 3.31188 11.6567C3.56772 12.0967 3.93426 12.4622 4.37508 12.7167V27.7083C4.37508 28.4819 4.68237 29.2237 5.22935 29.7707C5.77633 30.3177 6.5182 30.625 7.29175 30.625H27.7084C28.482 30.625 29.2238 30.3177 29.7708 29.7707C30.3178 29.2237 30.6251 28.4819 30.6251 27.7083V12.7167C31.0659 12.4622 31.4324 12.0967 31.6883 11.6567C31.9441 11.2167 32.0803 10.7173 32.0834 10.2083V7.29167C32.0834 6.51812 31.7761 5.77625 31.2291 5.22927C30.6822 4.68229 29.9403 4.375 29.1667 4.375ZM5.83341 7.29167H29.1667V10.2083H5.83341V7.29167ZM7.29175 27.7083V13.125H27.7084V27.7083H7.29175Z" fill="black"/>
<path d="M11.6667 16.0416H23.3334V18.9583H11.6667V16.0416Z" fill="black"/>
</svg>
