<svg width="52" height="52" viewBox="0 0 52 52" fill="none" xmlns="http://www.w3.org/2000/svg">
<path d="M44.6667 1H7.33333C3.82105 1 1 3.82105 1 7.33333V44.6667C1 46.3464 1.66726 47.9573 2.85499 49.145C4.04272 50.3327 5.65363 51 7.33333 51H44.6667C48.179 51 51 48.179 51 44.6667V7.33333C51 5.65363 50.3327 4.04272 49.145 2.85499C47.9573 1.66726 46.3464 1 44.6667 1ZM17.5467 13.8C19.604 13.8 21.2667 15.4553 21.2667 17.5467C21.2667 19.6077 19.6077 21.2667 17.5467 21.2667C15.4553 21.2667 13.8 19.604 13.8 17.5467C13.8 15.459 15.459 13.8 17.5467 13.8ZM34.5867 38.3333C32.5329 38.3333 30.8667 36.6551 30.8667 34.5867C30.8667 32.5256 32.5256 30.8667 34.5867 30.8667C36.6551 30.8667 38.3333 32.5329 38.3333 34.5867C38.3333 36.6477 36.6477 38.3333 34.5867 38.3333ZM16.6667 37.9991L14.0809 35.4133L35.4133 14.0809L37.9991 16.6667L16.6667 37.9991Z" fill="#168CE3" stroke="black" stroke-width="2"/>
</svg>
