<svg width="30" height="30" viewBox="0 0 30 30" fill="none" xmlns="http://www.w3.org/2000/svg">
<path d="M16.2579 3.86096C16.0386 3.86096 15.8604 4.03916 15.8604 4.25876C15.8604 4.27916 15.8691 4.29686 15.8721 4.31666H15.8604V13.7481C15.8604 13.9677 16.0386 14.1459 16.2579 14.1459H25.689V14.1342C25.7088 14.1372 25.7265 14.1459 25.7472 14.1459C25.9665 14.1459 26.1447 13.9677 26.1447 13.7481C26.0883 8.31206 21.6939 3.91766 16.2579 3.86096Z" fill="black"/>
<path d="M23.8457 16.038C23.8457 15.8184 23.6678 15.6402 23.4482 15.6402H14.7785C14.673 15.6401 14.5719 15.5982 14.4974 15.5236C14.4228 15.449 14.381 15.3479 14.381 15.2424V6.6045H14.3693C14.3723 6.5847 14.381 6.567 14.381 6.5466C14.381 6.3267 14.2028 6.1488 13.9832 6.1488C13.9736 6.1488 13.9658 6.1536 13.9565 6.1542V6.1515C13.9211 6.1512 13.886 6.1488 13.8506 6.1488C8.33057 6.1488 3.85547 10.6239 3.85547 16.1439C3.85547 21.6639 8.33057 26.139 13.8506 26.139C19.3706 26.139 23.8457 21.6639 23.8457 16.1439C23.8457 16.1121 23.8442 16.0806 23.8436 16.0485C23.8436 16.0446 23.8457 16.0416 23.8457 16.038Z" fill="black"/>
</svg>
