<svg width="35" height="35" viewBox="0 0 35 35" fill="none" xmlns="http://www.w3.org/2000/svg">
<path d="M26.25 3.60937C23.6797 2.02344 20.7266 1.09375 17.5 1.09375V3.60937H26.25Z" fill="#ED4C5C"/>
<path d="M17.5 6.125H29.3125C28.3828 5.19531 27.3438 4.32031 26.25 3.60938H17.5V6.125Z" fill="white"/>
<path d="M17.5 8.64063H31.3359C30.7344 7.71094 30.0781 6.89062 29.3672 6.125H17.5V8.64063Z" fill="#ED4C5C"/>
<path d="M17.5 11.1562H32.6484C32.2656 10.2812 31.8281 9.40625 31.3359 8.64062H17.5V11.1562Z" fill="white"/>
<path d="M17.5 13.6719H33.4688C33.25 12.7969 32.9766 11.9766 32.6484 11.1562H17.5V13.6719Z" fill="#ED4C5C"/>
<path d="M17.5 16.2422H33.8516C33.7969 15.3672 33.6328 14.5469 33.4688 13.7266H17.5V16.2422Z" fill="white"/>
<path d="M33.8516 16.2422H17.5V17.5H1.09375C1.09375 17.9375 1.09375 18.3203 1.14844 18.7578H33.8516C33.9063 18.3203 33.9062 17.9375 33.9062 17.5C33.9062 17.0625 33.9063 16.625 33.8516 16.2422Z" fill="#ED4C5C"/>
<path d="M1.53125 21.2734H33.4688C33.6875 20.4531 33.7969 19.6328 33.8516 18.7578H1.14844C1.20313 19.5781 1.3125 20.4531 1.53125 21.2734Z" fill="white"/>
<path d="M2.35156 23.7891H32.6484C32.9766 22.9687 33.25 22.1484 33.4688 21.2734H1.53125C1.75 22.1484 2.02344 22.9687 2.35156 23.7891Z" fill="#ED4C5C"/>
<path d="M3.66406 26.3047H31.3359C31.8281 25.4844 32.2656 24.6641 32.6484 23.7891H2.35156C2.73437 24.6641 3.17187 25.4844 3.66406 26.3047Z" fill="white"/>
<path d="M5.63281 28.8203H29.3672C30.0781 28.0547 30.7891 27.1797 31.3359 26.3047H3.66406C4.21094 27.2344 4.92188 28.0547 5.63281 28.8203Z" fill="#ED4C5C"/>
<path d="M8.69531 31.3359H26.3047C27.4531 30.625 28.4375 29.75 29.3672 28.8203H5.63281C6.5625 29.8047 7.60156 30.625 8.69531 31.3359Z" fill="white"/>
<path d="M17.5 33.9063C20.7266 33.9063 23.7344 32.9766 26.3047 31.3359H8.69531C11.2656 32.9766 14.2734 33.9063 17.5 33.9063Z" fill="#ED4C5C"/>
<path d="M8.75 3.60937C7.60156 4.32031 6.5625 5.19531 5.63281 6.125C4.86719 6.89062 4.21094 7.76563 3.66406 8.64063C3.17187 9.46094 2.67969 10.2812 2.35156 11.1562C2.02344 11.9766 1.75 12.7969 1.53125 13.6719C1.3125 14.4922 1.20312 15.3125 1.14844 16.1875C1.09375 16.625 1.09375 17.0625 1.09375 17.5H17.5V1.09375C14.2734 1.09375 11.3203 2.02344 8.75 3.60937Z" fill="#428BC1"/>
<path d="M13.6719 1.64062L13.9453 2.46094H14.7656L14.1094 3.00781L14.3281 3.82812L13.6719 3.33594L13.0156 3.82812L13.2344 3.00781L12.5781 2.46094H13.3984L13.6719 1.64062ZM15.8594 4.92188L16.1328 5.74219H16.9531L16.2969 6.28906L16.5156 7.10938L15.8594 6.61719L15.2031 7.10938L15.4219 6.28906L14.7656 5.74219H15.5859L15.8594 4.92188ZM11.4844 4.92188L11.7578 5.74219H12.5781L11.9219 6.28906L12.1406 7.10938L11.4844 6.61719L10.8281 7.10938L11.0469 6.28906L10.3906 5.74219H11.2109L11.4844 4.92188ZM13.6719 8.20312L13.9453 9.02344H14.7656L14.1094 9.57031L14.3281 10.3906L13.6719 9.89844L13.0156 10.3906L13.2344 9.57031L12.5781 9.02344H13.3984L13.6719 8.20312ZM9.29688 8.20312L9.57031 9.02344H10.3906L9.73437 9.57031L9.95313 10.3906L9.29688 9.89844L8.64062 10.3906L8.85938 9.57031L8.20313 9.02344H9.02344L9.29688 8.20312ZM4.92187 8.20312L5.19531 9.02344H6.01562L5.35938 9.57031L5.57812 10.3906L4.92187 9.89844L4.26563 10.3906L4.48437 9.57031L3.82812 9.02344H4.64844L4.92187 8.20312ZM15.8594 11.4844L16.1328 12.3047H16.9531L16.2969 12.8516L16.5156 13.6719L15.8594 13.1797L15.2031 13.6719L15.4219 12.8516L14.7656 12.3047H15.5859L15.8594 11.4844ZM11.4844 11.4844L11.7578 12.3047H12.5781L11.9219 12.8516L12.1406 13.6719L11.4844 13.1797L10.8281 13.6719L11.0469 12.8516L10.3906 12.3047H11.2109L11.4844 11.4844ZM7.10938 11.4844L7.38281 12.3047H8.20313L7.54687 12.8516L7.76562 13.6719L7.10938 13.1797L6.45312 13.6719L6.67187 12.8516L6.01562 12.3047H6.83594L7.10938 11.4844ZM13.6719 14.7656L13.9453 15.5859H14.7656L14.1094 16.1328L14.3281 16.9531L13.6719 16.4609L13.0156 16.9531L13.2344 16.1328L12.5781 15.5859H13.3984L13.6719 14.7656ZM9.29688 14.7656L9.57031 15.5859H10.3906L9.73437 16.1328L9.95313 16.9531L9.29688 16.4609L8.64062 16.9531L8.85938 16.1328L8.20313 15.5859H9.02344L9.29688 14.7656ZM4.92187 14.7656L5.19531 15.5859H6.01562L5.35938 16.1328L5.57812 16.9531L4.92187 16.4609L4.26563 16.9531L4.48437 16.1328L3.82812 15.5859H4.64844L4.92187 14.7656ZM6.45312 7.10938L7.10938 6.61719L7.76562 7.10938L7.49219 6.28906L8.14844 5.74219H7.32812L7.10938 4.92188L6.83594 5.74219H6.07031L6.72656 6.23437L6.45312 7.10938ZM2.07812 13.6719L2.73437 13.1797L3.39062 13.6719L3.11719 12.8516L3.77344 12.3047H3.00781L2.73437 11.4844L2.46094 12.3047H1.91406C1.91406 12.3594 1.85938 12.4141 1.85938 12.4687L2.29687 12.7969L2.07812 13.6719Z" fill="white"/>
</svg>
