<svg width="20" height="20" viewBox="0 0 20 20" fill="none" xmlns="http://www.w3.org/2000/svg">
<path d="M3.7 3.7C3.81594 3.58389 3.95363 3.49178 4.1052 3.42893C4.25677 3.36609 4.41925 3.33374 4.58333 3.33374C4.74741 3.33374 4.90989 3.36609 5.06146 3.42893C5.21303 3.49178 5.35072 3.58389 5.46666 3.7L10 8.23166L14.5333 3.7C14.6493 3.584 14.787 3.49198 14.9386 3.4292C15.0902 3.36642 15.2526 3.33411 15.4167 3.33411C15.5807 3.33411 15.7432 3.36642 15.8947 3.4292C16.0463 3.49198 16.184 3.584 16.3 3.7C16.416 3.816 16.508 3.95371 16.5708 4.10527C16.6336 4.25684 16.6659 4.41928 16.6659 4.58333C16.6659 4.74738 16.6336 4.90982 16.5708 5.06139C16.508 5.21295 16.416 5.35066 16.3 5.46666L11.7683 10L16.3 14.5333C16.5343 14.7676 16.6659 15.0854 16.6659 15.4167C16.6659 15.748 16.5343 16.0657 16.3 16.3C16.0657 16.5343 15.748 16.6659 15.4167 16.6659C15.0854 16.6659 14.7676 16.5343 14.5333 16.3L10 11.7683L5.46666 16.3C5.23239 16.5343 4.91465 16.6659 4.58333 16.6659C4.25202 16.6659 3.93427 16.5343 3.7 16.3C3.46572 16.0657 3.33411 15.748 3.33411 15.4167C3.33411 15.0854 3.46572 14.7676 3.7 14.5333L8.23166 10L3.7 5.46666C3.58389 5.35072 3.49178 5.21303 3.42893 5.06146C3.36609 4.90989 3.33374 4.74741 3.33374 4.58333C3.33374 4.41925 3.36609 4.25677 3.42893 4.1052C3.49178 3.95363 3.58389 3.81594 3.7 3.7Z" fill="black"/>
</svg>
