<svg width="35" height="35" viewBox="0 0 35 35" fill="none" xmlns="http://www.w3.org/2000/svg">
<path d="M17.5 33.9062C26.5609 33.9062 33.9062 26.5609 33.9062 17.5C33.9062 8.43908 26.5609 1.09375 17.5 1.09375C8.43908 1.09375 1.09375 8.43908 1.09375 17.5C1.09375 26.5609 8.43908 33.9062 17.5 33.9062Z" fill="#ED4C5C"/>
<path d="M12.0312 15.5312L16.4062 18.5938L14.7656 13.5625L19.1406 10.3906H13.7266L12.0312 5.46875L10.3906 10.3906H4.92188L9.29688 13.5625L7.65625 18.5938L12.0312 15.5312ZM19.3047 19.3047L18.0469 19.5781L19.25 20.0703V21.3281L20.0703 20.3984L21.2734 20.8359L20.5625 19.7969L21.3281 18.8125L20.0703 19.0859L19.3047 18.0469V19.3047ZM21.1641 15.5859L20.2344 16.4062L21.4922 16.2969L22.0391 17.5L22.2578 16.2422L23.5156 16.1328L22.4219 15.4766L22.6953 14.2188L21.7656 15.0391L20.6719 14.3828L21.1641 15.5859ZM21.4922 11.3203L21.875 12.5781L22.2578 11.375H23.5156L22.5313 10.6094L22.9141 9.35156L21.875 10.1172L20.8906 9.29688L21.2734 10.5547L20.2344 11.2656L21.4922 11.3203ZM19.3047 6.94531V8.20312L20.0703 7.16406L21.3281 7.4375L20.5625 6.45313L21.2734 5.41406L20.0703 5.90625L19.25 4.92188V6.17969L18.0469 6.67187L19.3047 6.94531Z" fill="#FFE62E"/>
</svg>
