<svg width="30" height="30" viewBox="0 0 30 30" fill="none" xmlns="http://www.w3.org/2000/svg">
<path d="M2.5 15C2.5 8.09626 8.09625 2.50001 15 2.50001C16.7907 2.49809 18.5608 2.88182 20.1899 3.62511C21.8191 4.36839 23.2691 5.4538 24.4412 6.80751L27.5 3.75001V11.25H20.9813C21.5338 11.8125 21.875 12.5863 21.875 13.4375V16.5625C21.875 17.3913 21.5458 18.1862 20.9597 18.7722C20.3737 19.3583 19.5788 19.6875 18.75 19.6875C17.9212 19.6875 17.1263 19.3583 16.5403 18.7722C15.9542 18.1862 15.625 17.3913 15.625 16.5625V13.4375C15.6248 12.8761 15.7759 12.325 16.0624 11.8421C16.3488 11.3593 16.76 10.9625 17.2528 10.6935C17.7456 10.4246 18.3018 10.2933 18.8629 10.3136C19.4239 10.3339 19.9692 10.5049 20.4412 10.8088L22.6688 8.58126C21.1595 6.77791 19.0631 5.56412 16.7477 5.15313C14.4324 4.74215 12.0462 5.16027 10.0086 6.33403C7.97091 7.50778 6.41207 9.36209 5.60594 11.5712C4.79981 13.7802 4.79797 16.2027 5.60073 18.413C6.40349 20.6233 7.9595 22.4799 9.99538 23.6568C12.0312 24.8337 14.4167 25.2554 16.7327 24.848C19.0487 24.4405 21.147 23.2299 22.659 21.4289C24.1709 19.6278 24.9998 17.3516 25 15H27.5C27.5 21.9038 21.9037 27.5 15 27.5C8.09625 27.5 2.5 21.9038 2.5 15ZM18.75 12.1875C18.4185 12.1875 18.1005 12.3192 17.8661 12.5536C17.6317 12.788 17.5 13.106 17.5 13.4375V16.5625C17.5 16.894 17.6317 17.212 17.8661 17.4464C18.1005 17.6808 18.4185 17.8125 18.75 17.8125C19.0815 17.8125 19.3995 17.6808 19.6339 17.4464C19.8683 17.212 20 16.894 20 16.5625V13.4375C20 13.106 19.8683 12.788 19.6339 12.5536C19.3995 12.3192 19.0815 12.1875 18.75 12.1875ZM12.5 16.7188C12.5 16.5116 12.4177 16.3128 12.2712 16.1663C12.1247 16.0198 11.926 15.9375 11.7188 15.9375H9.375V14.0625H11.7188C11.926 14.0625 12.1247 13.9802 12.2712 13.8337C12.4177 13.6872 12.5 13.4885 12.5 13.2813C12.5 13.0741 12.4177 12.8753 12.2712 12.7288C12.1247 12.5823 11.926 12.5 11.7188 12.5H8.4375V10.625H11.7188C12.2256 10.6251 12.7219 10.7701 13.149 11.0431C13.5761 11.3161 13.9162 11.7055 14.1291 12.1655C14.342 12.6255 14.4188 13.1368 14.3506 13.6391C14.2823 14.1413 14.0717 14.6135 13.7437 15C14.0717 15.3865 14.2823 15.8587 14.3506 16.361C14.4188 16.8632 14.342 17.3745 14.1291 17.8345C13.9162 18.2945 13.5761 18.684 13.149 18.9569C12.7219 19.2299 12.2256 19.375 11.7188 19.375H8.4375V17.5H11.7188C12.15 17.5 12.5 17.15 12.5 16.7188Z" fill="#545454"/>
</svg>
