<svg width="32" height="38" viewBox="0 0 32 38" fill="none" xmlns="http://www.w3.org/2000/svg">
<path d="M15.91 37.011H20.3495C20.4114 34.4812 20.7103 33.0902 21.2471 32.8379C26.8458 30.2037 30.8201 23.548 30.8201 15.7527H1C1 23.3789 4.80429 29.9153 10.2122 32.6613C10.7772 32.9479 11.1999 34.399 11.4788 37.011H15.91Z" stroke="#545454" stroke-width="1.33333" stroke-linejoin="round"/>
<path d="M8.78516 22.2438C9.05354 23.3409 9.4084 24.2476 9.84899 24.963C10.3084 25.6967 10.8449 26.3507 11.4444 26.9077M16.815 15.7767C18.4684 11.5581 20.1139 7.33476 21.7517 3.10675C22.5344 1.0641 24.1224 0.572392 25.5873 1.34878C27.0522 2.12517 27.6448 4.34527 27.0298 5.89343C26.6496 6.84913 25.3599 10.1368 23.1607 15.7563" stroke="#545454" stroke-width="1.33333" stroke-linecap="round"/>
</svg>
