<svg width="30" height="30" viewBox="0 0 30 30" fill="none" xmlns="http://www.w3.org/2000/svg">
<path d="M2.8125 3.28125V25.3125H28.5938C28.9667 25.3125 29.3244 25.4607 29.5881 25.7244C29.8518 25.9881 30 26.3458 30 26.7188C30 27.0917 29.8518 27.4494 29.5881 27.7131C29.3244 27.9768 28.9667 28.125 28.5938 28.125H1.40625C1.03329 28.125 0.675604 27.9768 0.411881 27.7131C0.148158 27.4494 0 27.0917 0 26.7188L0 3.28125C0 2.90829 0.148158 2.5506 0.411881 2.28688C0.675604 2.02316 1.03329 1.875 1.40625 1.875C1.77921 1.875 2.1369 2.02316 2.40062 2.28688C2.66434 2.5506 2.8125 2.90829 2.8125 3.28125ZM29.5875 8.025L19.7437 17.8687C19.4801 18.1321 19.1227 18.28 18.75 18.28C18.3773 18.28 18.0199 18.1321 17.7563 17.8687L13.125 13.2375L8.025 18.3375C7.75826 18.5858 7.40566 18.721 7.04132 18.7147C6.67697 18.7084 6.32926 18.5611 6.07125 18.3038C5.81392 18.0457 5.66663 17.698 5.66033 17.3337C5.65404 16.9693 5.78923 16.6167 6.0375 16.35L12.1312 10.2562C12.3949 9.9929 12.7523 9.84499 13.125 9.84499C13.4977 9.84499 13.8551 9.9929 14.1188 10.2562L18.75 14.8875L27.6 6.0375C27.8667 5.78923 28.2193 5.65404 28.5837 5.66033C28.948 5.66663 29.2957 5.81392 29.5538 6.07125C29.8111 6.32926 29.9584 6.67697 29.9647 7.04132C29.971 7.40566 29.8358 7.75826 29.5875 8.025Z" fill="#545454"/>
</svg>
