<svg width="35" height="35" viewBox="0 0 35 35" fill="none" xmlns="http://www.w3.org/2000/svg">
<path d="M17.5 33.9062C26.5609 33.9062 33.9062 26.5609 33.9062 17.5C33.9062 8.43908 26.5609 1.09375 17.5 1.09375C8.43908 1.09375 1.09375 8.43908 1.09375 17.5C1.09375 26.5609 8.43908 33.9062 17.5 33.9062Z" fill="#F5F5F5"/>
<path d="M12.7969 18.4297C14.3281 19.4688 16.4609 19.0313 17.5 17.5C18.5391 15.9688 20.6172 15.5313 22.2031 16.5703C23.6797 17.5547 24.1172 19.4688 23.2969 20.9453C25.1016 17.8828 24.2812 13.8906 21.2187 11.8672C18.1016 9.78908 13.8906 10.6094 11.8125 13.7266C11.7578 13.836 11.7031 13.9453 11.6484 14C10.8828 15.586 11.375 17.4453 12.7969 18.4297Z" fill="#ED4C5C"/>
<path d="M22.2029 16.5703C20.6716 15.5312 18.5388 15.9687 17.4998 17.5C16.4607 19.0312 14.3826 19.4688 12.7966 18.4297C11.3201 17.4453 10.8826 15.5312 11.7029 14.0547C9.84351 17.1172 10.7185 21.1094 13.781 23.1328C16.8982 25.2109 21.1091 24.3906 23.1873 21.2734C23.2419 21.1641 23.2966 21.0547 23.3513 21C24.1169 19.4141 23.6248 17.5547 22.2029 16.5703Z" fill="#428BC1"/>
<path d="M4.26563 12.7422L8.03906 7.10937L7.65625 6.83594L7.27344 6.61719L3.5 12.25L3.88281 12.4687L4.26563 12.7422ZM5.30469 13.4531L5.6875 13.6719L9.40625 8.03906L9.07813 7.82031L8.69531 7.54687L4.92188 13.1797L5.30469 13.4531ZM10.0625 8.47656L6.34375 14.1094L6.72656 14.3828L7.10938 14.6016L10.8281 8.96875L10.4453 8.75L10.0625 8.47656ZM26.5234 23.2422L26.9062 23.5156L28.6562 20.8906L28.2734 20.6172L27.8906 20.3984L26.1406 23.0234L26.5234 23.2422ZM30.7344 22.2578L28.9844 24.8828L29.3672 25.1562L29.75 25.375L31.5 22.75L31.1172 22.5312L30.7344 22.2578ZM28.3281 24.4453L30.0781 21.8203L29.6953 21.5469L29.3125 21.3281L27.5625 23.9531L27.9453 24.1719L28.3281 24.4453ZM26.3047 23.625L25.9219 23.4062L24.1719 26.0312L24.5547 26.25L24.9375 26.5234L26.6875 23.8984L26.3047 23.625ZM27.6719 24.5547L27.3438 24.3359L25.5937 26.9609L25.9219 27.1797L26.3047 27.4531L28.0547 24.8281L27.6719 24.5547ZM28.7109 25.2656L26.9609 27.8906L27.3438 28.1641L27.7266 28.3828L29.4766 25.7578L29.0938 25.4844L28.7109 25.2656ZM3.88281 22.5312L3.5 22.75L7.27344 28.3828L7.65625 28.1641L8.03906 27.8906L4.26563 22.2578L3.88281 22.5312ZM7.32812 24.5547L6.94531 24.8281L8.69531 27.4531L9.07813 27.1797L9.40625 26.9609L7.65625 24.3359L7.32812 24.5547ZM6.72656 20.6172L6.34375 20.8906L10.0625 26.5234L10.4453 26.25L10.8281 26.0312L7.10938 20.3984L6.72656 20.6172ZM4.92188 21.8203L6.67187 24.4453L7.05469 24.1719L7.4375 23.9531L5.6875 21.3281L5.30469 21.5469L4.92188 21.8203ZM29.0938 9.51562L29.4766 9.24219L27.7266 6.61719L27.3438 6.83594L26.9609 7.10937L28.7109 9.73437L29.0938 9.51562ZM26.3047 11.375L26.6875 11.1016L24.9375 8.47656L24.5547 8.75L24.1719 8.96875L25.9219 11.5938L26.3047 11.375ZM28.9844 10.1172L30.7344 12.7422L31.1172 12.4687L31.5 12.25L29.75 9.625L29.3672 9.84375L28.9844 10.1172ZM29.6953 13.4531L30.0781 13.1797L26.3047 7.54687L25.9219 7.82031L25.5937 8.03906L29.3125 13.6719L29.6953 13.4531ZM28.2734 14.3828L28.6562 14.1094L26.9062 11.4844L26.5234 11.7578L26.1406 11.9766L27.8906 14.6016L28.2734 14.3828Z" fill="#3E4347"/>
</svg>
